<svg width="512" height="512" viewBox="0 0 512 512" fill="none" xmlns="http://www.w3.org/2000/svg">
  <rect width="512" height="512" rx="256" fill="#F3E8DC"/>
  <path d="M169 390C178 327 210 276 257 247C269 240 286 228 294 214C303 199 305 174 299 154C290 122 310 106 338 116C362 125 381 148 389 175C401 216 392 264 365 299C346 323 323 340 298 353L300 428H169V390Z" fill="#D39A74"/>
  <path d="M205 194C216 182 233 175 250 175" stroke="#6B3E2E" stroke-width="11" stroke-linecap="round"/>
  <circle cx="238" cy="206" r="8" fill="#6B3E2E"/>
  <path d="M286 241C272 246 261 256 256 271" stroke="#6B3E2E" stroke-width="9" stroke-linecap="round"/>
  <path d="M245 297C258 307 275 313 293 313" stroke="#6B3E2E" stroke-width="10" stroke-linecap="round"/>
  <path d="M122 256H196" stroke="#9EC19B" stroke-width="16" stroke-linecap="round"/>
  <path d="M170 216L210 256L170 296" stroke="#9EC19B" stroke-width="16" stroke-linecap="round" stroke-linejoin="round"/>
  <rect x="86" y="86" width="340" height="340" rx="170" stroke="#9EC19B" stroke-width="16" stroke-dasharray="16 18"/>
</svg>
